<?xml version='1.0' encoding='utf-8'?>
<svg xmlns="http://www.w3.org/2000/svg" version="1.1" width="1024" height="1536">
<path d="M0 0 C337.92 0 675.84 0 1024 0 C1024 506.88 1024 1013.76 1024 1536 C686.08 1536 348.16 1536 0 1536 C0 1029.12 0 522.24 0 0 Z " fill="#F48E6D" transform="translate(0,0)" />
<path d="M0 0 C155.43 0 310.86 0 471 0 C466.89177757 4.79292617 462.94114935 9.05773012 458.3125 13.25 C445.09527801 25.44330555 431.87633855 37.73089301 421.24609375 52.30078125 C419.94679655 54.07255015 418.61699794 55.8180813 417.28125 57.5625 C397.09353336 84.15760692 382.88749258 114.34652279 371.89990234 145.75439453 C362.53264194 172.47793854 350.29514249 190.29618769 324.32421875 202.8671875 C287.0865776 221.00400882 252.7530476 247.76514027 238.60180664 288.04199219 C238.25883545 289.05938477 237.91586426 290.07677734 237.5625 291.125 C237.24466553 292.06504883 236.92683105 293.00509766 236.59936523 293.97363281 C235.64544965 296.964398 234.80289685 299.96524248 234 303 C233.71229736 304.04824951 233.42459473 305.09649902 233.12817383 306.17651367 C229.42940621 322.17453348 230.55777305 339.06779203 230.56420898 355.40356445 C230.56426075 358.95598467 230.54478503 362.50792229 230.51487541 366.06020927 C230.50430013 368.02449654 230.51606906 369.98886515 230.52870178 371.95314026 C230.36341616 392.18740065 223.08521185 407.83241849 209 422 C208.34515625 422.680625 207.6903125 423.36125 207.015625 424.0625 C204.19171934 426.96412783 201.25601896 429.67186217 198.1875 432.3125 C174.5139901 452.89024322 155.01453433 481.30346448 151 513 C149.55964001 537.79060097 152.72082649 560.3852657 159.82519531 584.17944336 C168.59105713 614.17137671 170.07449614 645.00092816 154.875 673 C144.23550716 690.61734203 127.420421 702.29655244 109.05859375 710.859375 C106.91121711 712.0491928 105.49857261 713.0542343 104 715 C103.87079811 718.9406576 103.86197008 721.51260528 106.28515625 724.6796875 C115.60977524 733.18867788 127.04243297 736.35570772 139.375 736.25 C140.26960937 736.25773438 141.16421875 736.26546875 142.0859375 736.2734375 C147.28460298 736.2583251 151.98392986 735.75965771 157.01416016 734.42871094 C159 734 159 734 163 734 C161.37858251 739.77452192 158.58076907 744.72703281 155.6875 749.9375 C155.15697021 750.90115479 154.62644043 751.86480957 154.07983398 752.85766602 C148.13845052 763.61972937 142.07182046 774.3111985 136 785 C128.46477609 798.28051538 120.99210298 811.59330971 113.58862305 824.94775391 C109.04625328 833.1346579 104.45950856 841.29522537 99.84155273 849.43969727 C97.06854722 854.33256412 94.30807658 859.23184291 91.5703125 864.14453125 C90.40110068 866.2422204 89.23182944 868.33987642 88.0625 870.4375 C87.48105225 871.48067383 86.89960449 872.52384766 86.30053711 873.59863281 C82.85749386 879.75240006 79.33744203 885.85266961 75.74682617 891.92138672 C68.20543497 904.67271458 61.3302965 917.69938873 54.60009766 930.89404297 C52.68356685 934.61422987 50.70632808 938.29926051 48.72167969 941.98339844 C44.52307292 949.80270487 40.69879028 957.51472052 38 966 C37.75636719 966.763125 37.51273438 967.52625 37.26171875 968.3125 C31.68708569 990.15596015 38.40349556 1011.54149211 48 1031 C48.34691895 1031.7115625 48.69383789 1032.423125 49.05126953 1033.15625 C56.95744963 1049.21210431 67.03147068 1063.89220194 78 1078 C78.859375 1079.1171875 79.71875 1080.234375 80.578125 1081.3515625 C85.75826295 1088.04697254 91.11420873 1094.55809083 96.65722656 1100.95605469 C99.6931446 1104.46146492 102.65434019 1108.01183175 105.5625 1111.625 C109.66885974 1116.68528722 114.02800325 1121.46680269 118.45703125 1126.2421875 C120.44988239 1128.40340548 122.39707785 1130.58346969 124.3125 1132.8125 C128.33045747 1137.45309495 132.55333148 1141.90424768 136.76293945 1146.37036133 C139.72068083 1149.5176642 142.61867248 1152.69609764 145.4375 1155.96875 C149.09869053 1160.1815708 153.01705722 1164.09335881 157 1168 C161.59704937 1172.50898329 165.99209751 1177.08643966 170.19580078 1181.96435547 C173.45827293 1185.64534232 176.95121338 1189.09504121 180.4375 1192.5625 C181.14970703 1193.27857422 181.86191406 1193.99464844 182.59570312 1194.73242188 C186.61842866 1198.74784 190.74680427 1202.55915334 195.05102539 1206.26928711 C198.34908759 1209.19800601 201.41320575 1212.35192143 204.5 1215.5 C208.97092284 1220.01947185 213.45299519 1224.42580628 218.3125 1228.53125 C220.12940433 1230.11262969 221.8121128 1231.78197196 223.5 1233.5 C234.12535116 1244.24367355 246.39872069 1253.58010555 258.3984375 1262.73046875 C260 1264 260 1264 262 1266 C261.75221692 1272.03971253 259.49656421 1276.82105456 257 1282.25 C240.89464511 1318.73641022 231.9601848 1359.37133178 231.796875 1399.3046875 C231.78628555 1401.02856941 231.78628555 1401.02856941 231.77548218 1402.78727722 C231.5808402 1443.78810804 234.63808695 1482.4424193 246 1522 C247.32 1526.62 248.64 1531.24 250 1536 C167.5 1536 85 1536 0 1536 C0 1029.12 0 522.24 0 0 Z " fill="#FEFEFE" transform="translate(0,0)" />
<path d="M0 0 C78.21 0 156.42 0 237 0 C237 506.88 237 1013.76 237 1536 C162.42 1536 87.84 1536 11 1536 C12.12583623 1530.37081884 12.12583623 1530.37081884 14.00390625 1527.21484375 C14.61371338 1526.18133789 14.61371338 1526.18133789 15.23583984 1525.12695312 C15.6736377 1524.40443359 16.11143555 1523.68191406 16.5625 1522.9375 C17.0157666 1522.18017578 17.4690332 1521.42285156 17.93603516 1520.64257812 C21.76389783 1514.29287697 25.77312734 1508.09211184 30 1502 C30.45665039 1501.33967773 30.91330078 1500.67935547 31.38378906 1499.99902344 C37.31991273 1491.43321632 43.35574424 1483.03586579 50 1475 C50.65871094 1474.16855469 51.31742188 1473.33710937 51.99609375 1472.48046875 C57.9962724 1464.96097881 64.50261324 1457.98204316 71.10888672 1451 C76.76195865 1445.0214349 82.38129701 1439.01085321 88 1433 C88.52255371 1432.44151367 89.04510742 1431.88302734 89.58349609 1431.30761719 C95.15421404 1425.34094582 100.56061885 1419.28107786 105.6640625 1412.90625 C107.25621389 1410.92537937 108.87749354 1408.96765465 110.5234375 1407.03125 C126.05614793 1388.56857519 139.28835252 1367.44374536 150.76660156 1346.26416016 C151.93253051 1344.12385433 153.12928515 1342.00425522 154.3359375 1339.88671875 C175.7156809 1301.76894784 187.19180279 1257.08309072 193 1214 C193.16371094 1212.79102051 193.32742188 1211.58204102 193.49609375 1210.33642578 C202.31473017 1141.74601913 193.79708205 1071.4430211 161 1010 C160.62407715 1009.28682617 160.2481543 1008.57365234 159.86083984 1007.83886719 C153.9575642 996.68957787 147.40353076 986.21205309 140 976 C139.59894043 975.44586426 139.19788086 974.89172852 138.78466797 974.32080078 C126.75363027 957.79642547 113.1471129 943.06819323 98.75 928.625 C98.27841461 928.15073578 97.80682922 927.67647156 97.32095337 927.18783569 C91.72322061 921.56600677 86.03922885 916.14347321 80 911 C78.76173595 909.91943939 77.52474685 908.83741595 76.2890625 907.75390625 C69.31537126 901.6710321 62.29807478 895.69310398 55 890 C53.67304582 888.95329139 52.34623618 887.90639953 51.01953125 886.859375 C37.81849183 876.47787614 24.30792807 866.59253357 10.4375 857.125 C-6.6275066 845.45683297 -6.6275066 845.45683297 -8 841 C-7.94881824 833.39950923 -4.65681572 827.4118694 -1.375 820.6875 C3.70979196 809.95913119 8.29679092 799.2790378 12 788 C12.43183594 786.76636719 12.86367188 785.53273438 13.30859375 784.26171875 C18.73104934 766.49332623 18.60314888 745.05415166 11 728 C10.48050781 726.79601562 9.96101562 725.59203125 9.42578125 724.3515625 C-0.46342414 703.09783904 -18.70765819 685.31574576 -37 671 C-38.010625 670.195625 -39.02125 669.39125 -40.0625 668.5625 C-53.99047969 657.501307 -68.21527653 646.81211643 -82.45776367 636.16088867 C-88.68436138 631.49951642 -94.84524843 626.75559687 -101 622 C-102.62212526 620.75085053 -104.24498335 619.50266044 -105.86816406 618.25488281 C-106.95523665 617.41892334 -108.04182629 616.58233547 -109.12792969 615.74511719 C-111.81466043 613.67480155 -114.50738294 611.6134617 -117.21484375 609.5703125 C-122.93997073 605.23651644 -128.53933361 600.78895248 -134 596.125 C-134.50845459 595.69203613 -135.01690918 595.25907227 -135.54077148 594.81298828 C-145.67352371 586.06531099 -155.3355631 576.81480236 -164.76015663 567.31500816 C-166.42010878 565.64194227 -168.08347206 563.97232861 -169.74760437 562.30342102 C-173.27212649 558.76765198 -176.79261884 555.22788837 -180.3125 551.6875 C-184.41700333 547.5592138 -188.52324087 543.4326812 -192.63371849 539.31034279 C-194.25753374 537.68013648 -195.87826598 536.04690987 -197.49885559 534.41349792 C-202.82557349 529.06035697 -208.24442121 523.89472978 -214 519 C-223.45690894 510.63494489 -228.3870942 500.76094767 -229.265625 488.203125 C-229.22168109 483.59276569 -227.64583362 480.37248718 -225.375 476.4375 C-225.01253174 475.78563721 -224.65006348 475.13377441 -224.27661133 474.4621582 C-220.99968564 468.70859544 -217.60119268 463.73412845 -212 460 C-206.96038995 460.08688983 -203.88603733 463.25750159 -200.25 466.375 C-192.26138278 472.98083859 -183.84902677 478.61701235 -175 484 C-174.32291992 484.41411133 -173.64583984 484.82822266 -172.94824219 485.25488281 C-155.54900787 495.78533377 -137.65807727 502.69903254 -116.984375 499.5390625 C-110.89442275 497.91124507 -105.92980652 494.8734194 -101 491 C-100.41734375 490.54367187 -99.8346875 490.08734375 -99.234375 489.6171875 C-94.28739659 485.20189369 -91.06789112 479.6077888 -87.72680664 473.94970703 C-80.01418449 461.01108872 -80.01418449 461.01108872 -73.4375 459.1875 C-69.94081363 457.8896562 -69.94081363 457.8896562 -68.015625 454.8515625 C-67.74234375 454.01367188 -67.4690625 453.17578125 -67.1875 452.3125 C-65.02043716 447.00397557 -61.81095644 445.64897061 -56.80786133 443.47729492 C-55.01121581 442.75592058 -53.20372458 442.06085972 -51.38549805 441.39575195 C-44.0510147 438.58274243 -40.46494306 434.96061665 -36.98168945 427.95068359 C-36.12317302 425.98693145 -35.35764799 424.01378109 -34.625 422 C-34.23634766 420.98099609 -34.23634766 420.98099609 -33.83984375 419.94140625 C-33.21510752 418.29858136 -32.60582049 416.64989409 -32 415 C-30.63681641 415.05220703 -30.63681641 415.05220703 -29.24609375 415.10546875 C-16.44980533 415.38108112 -2.84384637 414.59069246 8 407 C15.55271776 398.67264452 15.40194265 387.42192271 15.22549438 376.82074547 C15.18664479 374.45974509 15.16751721 372.09926013 15.15307617 369.73799133 C15.11329952 363.8749821 15.04078439 358.01246759 14.96887207 352.14978027 C14.9092031 347.18431531 14.86248175 342.21903905 14.83218384 337.25330544 C14.81303164 334.95063754 14.77551837 332.64877265 14.73706055 330.34635925 C14.6177434 318.97397939 15.56516253 307.95025949 21.625 298.0625 C21.97127441 297.48661133 22.31754883 296.91072266 22.67431641 296.31738281 C25.50621514 291.65203554 28.51623935 287.09601299 31.50024414 282.52709961 C39.63296361 269.95235713 46.62246019 256.54086787 53 243 C53.38655762 242.17999512 53.77311523 241.35999023 54.17138672 240.51513672 C64.35208068 218.64744223 72.18408474 195.85919723 76 172 C76.18949219 170.95714844 76.37898438 169.91429687 76.57421875 168.83984375 C82.33757887 116.86385292 58.14253211 70.56504205 26.625 30.69140625 C20.2211244 22.73189337 13.49764833 15.1192297 6.44189453 7.73193359 C5.88872559 7.15266113 5.33555664 6.57338867 4.765625 5.9765625 C4.27868164 5.47205566 3.79173828 4.96754883 3.29003906 4.44775391 C2 3 2 3 0 0 Z " fill="#FEFEFE" transform="translate(787,0)" />
<path d="M0 0 C1.16334225 1.03144326 2.33551944 2.05296827 3.51416016 3.06689453 C16.88580239 14.58776749 29.29401034 27.17705114 39.66235352 41.47387695 C40.51727165 42.6227244 41.3727478 43.77115679 42.22875977 44.91918945 C83.13516274 100.37009126 96.14985525 172.9228646 86.66235352 240.47387695 C86.5547168 241.26922852 86.44708008 242.06458008 86.33618164 242.8840332 C82.32086479 271.150049 73.962952 299.53823956 64.66235352 326.47387695 C64.42129883 327.19865234 64.18024414 327.92342773 63.93188477 328.67016602 C53.36154165 360.42702055 33.99461929 389.8686514 13.09985352 415.78637695 C12.61822754 416.38385742 12.13660156 416.98133789 11.64038086 417.59692383 C2.84049308 428.3017626 -6.86580482 438.2376427 -16.65014648 448.03637695 C-17.19568176 448.58325165 -17.74121704 449.13012634 -18.30328369 449.693573 C-26.21610789 457.60220287 -34.19879379 464.98467819 -43.33764648 471.47387695 C-44.24643555 472.16610352 -45.15522461 472.85833008 -46.09155273 473.5715332 C-53.47917507 479.1525754 -61.30505484 483.89864663 -69.33764648 488.47387695 C-70.22709961 488.98144531 -71.11655273 489.48901367 -72.03295898 490.01196289 C-106.97530832 509.80242422 -144.38814903 521.46243154 -184.33764648 525.47387695 C-185.64733398 525.60665039 -186.95702148 525.73942383 -188.30639648 525.8762207 C-191.98362721 526.17851557 -195.65073852 526.36568516 -199.33764648 526.47387695 C-200.1980957 526.5011084 -201.05854492 526.52833984 -201.94506836 526.55639648 C-261.74904684 528.1702513 -322.38949948 511.06609398 -367.33764648 470.47387695 C-368.21420898 469.71719727 -369.09077148 468.96051758 -369.99389648 468.1809082 C-403.90327913 438.61485698 -424.21702132 394.10094592 -430.00512695 349.91357422 C-430.25795789 348.05855253 -430.54429787 346.20806274 -430.84594727 344.36035156 C-432.40086766 334.22853442 -432.64516345 324.3031169 -432.59838867 314.06933594 C-432.58772791 311.30747179 -432.59831472 308.54626761 -432.61108398 305.78442383 C-432.62100232 293.57122211 -431.82208166 281.59390506 -430.33764648 269.47387695 C-430.13461914 267.78621216 -430.13461914 267.78621216 -429.92749023 266.06445312 C-421.93432787 204.41100809 -394.55540519 145.1814115 -359.33764648 94.47387695 C-358.82959473 93.74056152 -358.32154297 93.00724609 -357.7980957 92.25170898 C-351.49851336 83.18433772 -345.06438466 74.23023441 -338.33764648 65.47387695 C-337.92192383 64.9319873 -337.50620117 64.39009766 -337.07788086 63.83178711 C-328.06203858 52.11453135 -318.52390018 40.87994389 -308.56811523 29.95043945 C-307.36214906 28.61141571 -306.16192503 27.26661329 -304.99658203 25.89208984 C-299.51282594 19.46359229 -293.57750312 13.49251353 -287.61572266 7.51171875 C-285.79629367 5.68263634 -283.98787087 3.84312507 -282.17944336 2.00317383 C-274.36626515 -5.87985018 -266.18521924 -12.83826897 -257.33764648 -19.52612305 C-255.20504954 -21.20420808 -253.08481018 -22.89732026 -250.96264648 -24.58862305 C-239.94433522 -33.07634539 -228.20513316 -40.20465398 -215.33764648 -45.52612305 C-214.67039551 -45.80552734 -214.00314453 -46.08493164 -213.31567383 -46.37280273 C-140.17683177 -76.78237796 -57.34570395 -51.15763662 0 0 Z " fill="#FEFEFE" transform="translate(855.337646484375,963.526123046875)" />
<path d="M0 0 C9.41800601 8.17142899 17.03537835 17.04787562 23 28 C23.48871582 28.89090332 23.48871582 28.89090332 23.98730469 29.79980469 C29.17538106 39.48386701 31.87978303 49.26212695 34 60 C34.1757959 60.8038916 34.3515918 61.6077832 34.53271484 62.43603516 C38.12158822 82.12796213 33.43962627 101.89770171 26 120 C21.17861912 131.99267849 17.75952403 142.50290867 17.625 155.5 C17.61106201 156.35400391 17.59712402 157.20800781 17.58276367 158.08789062 C17.67160922 170.22626895 21.93592917 180.91063957 26.5 192 C37.58040544 218.9221522 38.82166332 245.7063122 32 274 C31.82871582 274.73299316 31.65743164 275.46598633 31.48095703 276.22119141 C18.94081381 328.29711756 -20.05708985 378.8048693 -62 411 C-62.77730469 411.65613281 -63.55460937 412.31226563 -64.35546875 412.98828125 C-80.90709964 426.89381128 -101.10084685 435.9066801 -122 441 C-122.71357666 441.18618896 -123.42715332 441.37237793 -124.16235352 441.56420898 C-131.33528529 443.24619455 -138.48931525 443.33863371 -145.82202148 443.31567383 C-147.93070077 443.3125102 -150.037977 443.33606626 -152.14648438 443.36132812 C-160.16736993 443.39901279 -167.36779601 442.66305007 -175 440 C-176.08152344 439.64679688 -177.16304687 439.29359375 -178.27734375 438.9296875 C-186.17130494 435.79992315 -192.49866057 431.43041909 -199 426 C-199.65742187 425.45730469 -200.31484375 424.91460938 -200.9921875 424.35546875 C-222.47412083 404.80393957 -229.0928955 370.35207762 -237.11425781 343.74316406 C-237.96566927 341.10632307 -238.93849123 338.55859815 -240 336 C-244.8800213 336.44123158 -246.99851582 338.50756196 -250.4375 341.875 C-269.64847556 360.16704708 -302.32003212 390.98603153 -330.16015625 390.375 C-337.16191271 389.45042143 -343.54277294 385.56119061 -348.27734375 380.37890625 C-358.86507417 365.75775472 -362.29277191 349.67573593 -362.4375 331.9375 C-362.4478125 330.87861572 -362.458125 329.81973145 -362.46875 328.72875977 C-362.39304267 322.10384259 -361.99923275 315.84830632 -357.76074219 310.40991211 C-355.03956076 307.76075116 -352.82856373 306.96681879 -349.125 306.25 C-343.74073515 306.64387733 -340.47290663 310.13841661 -337 314 C-334.06262335 318.60374828 -331.7684714 323.51932863 -329.40234375 328.43359375 C-326.77358749 334.0476416 -326.77358749 334.0476416 -321.83984375 337.359375 C-318.50046631 336.93678528 -317.73601049 336.48989453 -315.6875 333.875 C-315.09582031 333.13121094 -314.50414062 332.38742187 -313.89453125 331.62109375 C-311.82928197 328.76381072 -309.84971701 325.85805952 -307.875 322.9375 C-292.20399775 299.77167059 -266.53089579 274.10382422 -238.0234375 268.36328125 C-220.63719793 266.27423696 -205.28290077 269.99089427 -190.984375 280.140625 C-188.23015536 282.34092337 -185.60134315 284.62151335 -183 287 C-181.88238281 287.99580078 -181.88238281 287.99580078 -180.7421875 289.01171875 C-163.81463285 304.93818146 -152.48132369 326.55494885 -142 347 C-145.60222558 330.28309864 -152.08335214 315.44893465 -162.00390625 301.46875 C-163 300 -163 300 -163 299 C-161.77925781 298.97421875 -160.55851563 298.9484375 -159.30078125 298.921875 C-133.6993371 298.14939514 -110.0515161 286.3116244 -92 268 C-91.67 267.34 -91.34 266.68 -91 266 C-91.7842334 266.39268066 -92.5684668 266.78536133 -93.37646484 267.18994141 C-142.41324235 291.62575248 -142.41324235 291.62575248 -164.89453125 286.31640625 C-167.10940976 285.38158012 -169.00270887 284.33430722 -171 283 C-171.66902344 282.5875 -172.33804688 282.175 -173.02734375 281.75 C-194.76798177 267.06150752 -208.40108766 233.68984797 -217.47729492 210.16894531 C-221.4533865 200.10267435 -225.51186304 193.94006086 -235.5 189.4375 C-242.71567882 186.14669393 -247.63259724 182.56375041 -251.3515625 175.39453125 C-252.93468027 169.54843973 -252.93534983 163.26210048 -250.4375 157.6875 C-247.37011482 152.37142676 -242.6241261 148.40721351 -237 146 C-227.16195309 144.98227101 -219.18943813 149.22285905 -211.4296875 154.98828125 C-196.50707524 167.34382034 -188.34783739 186.06749767 -179.4230957 202.86010742 C-170.18759107 222.99319036 -170.18759107 222.99319036 -155.08984375 237.94140625 C-151.87507473 238.03153996 -150.38586388 236.4987201 -147.875 234.5625 C-146.41707031 233.45455078 -146.41707031 233.45455078 -144.9296875 232.32421875 C-142.25900439 230.20547681 -139.62839109 228.04573194 -137 225.875 C-125.79711872 216.84156557 -115.68695549 213.85745719 -101.5625 213.6875 C-80.60087447 213.07544674 -63.69051003 206.56987155 -49 191 C-41.69882561 182.09818353 -36.57533131 172.67838886 -37 161 C-37.33 160.01 -37.66 159.02 -38 158 C-38.81791016 159.64935547 -38.81791016 159.64935547 -39.65234375 161.33203125 C-49.66545727 181.13828852 -62.5911462 194.82390591 -84 202 C-98.565641 206.17099528 -114.1430945 205.31360537 -127.76953125 198.64453125 C-139.7181694 191.96260917 -146.00072164 181.8186134 -152.125 169.875 C-154.36887632 166.43438965 -156.32234621 165.68559132 -160 164 C-164.95742505 158.9048687 -166.11010249 154.07615745 -166.25 147.125 C-166.12935537 140.61823269 -165.13943728 135.4541726 -162.375 129.5 C-160.4551086 124.6130037 -160.09188407 120.53048613 -161.86230469 115.59716797 C-163.07836525 112.92793052 -164.37009093 110.30814496 -165.6875 107.6875 C-174.62895215 88.82844774 -180.45104874 67.71987925 -174.17578125 46.9609375 C-162.66999774 17.98624014 -141.65992385 -3.4835072 -113 -16 C-75.25100845 -30.73131377 -31.74292921 -26.21954622 0 0 Z " fill="#F5513F" transform="translate(827,987)" />
<path d="M0 0 C4.79878754 4.79878754 3.23536448 13.79785478 3.25 20.125 C3.23907191 54.15725085 -8.47800842 79.95031082 -28.015625 107.21484375 C-42.07518209 126.85004726 -51.43042098 143.67377243 -51.1875 168.375 C-51.18685547 169.6125 -51.18621094 170.85 -51.18554688 172.125 C-51.15383381 178.81997985 -50.84918275 185.40996945 -50.23364258 192.07470703 C-49.82980397 197.13091834 -49.77593415 202.17987415 -49.75 207.25 C-49.7190625 208.78527344 -49.7190625 208.78527344 -49.6875 210.3515625 C-49.65525655 216.62291364 -50.22943211 221.33587172 -53 227 C-57.689764 230.81043325 -61.38119188 232.10574766 -67.33203125 232.17578125 C-68.37810547 232.19962891 -69.42417969 232.22347656 -70.50195312 232.24804688 C-72.69707205 232.2907837 -74.89244354 232.3221596 -77.08789062 232.34179688 C-83.32005589 232.50630461 -87.28868199 232.75981379 -92 237 C-95.30753984 241.77755754 -95.92827169 247.24895507 -96.86328125 252.87890625 C-98.59657104 257.63800777 -101.66268366 259.84679033 -106.05004883 262.01147461 C-108.26480562 262.9622828 -110.49443485 263.83827779 -112.75 264.6875 C-114.26736825 265.27022041 -115.78308295 265.85727019 -117.296875 266.44921875 C-118.29219238 266.82566528 -118.29219238 266.82566528 -119.30761719 267.2097168 C-121.20700672 267.97933139 -121.20700672 267.97933139 -123 270 C-123.22282037 272.00538329 -123.44187467 274.01299827 -123.55859375 276.02734375 C-124.12290525 278.54926684 -124.97810408 279.42068498 -127 281 C-128.216875 281.4125 -129.43375 281.825 -130.6875 282.25 C-139.82483913 285.578721 -144.32231012 292.72098406 -149.34790039 300.57006836 C-153.46468587 306.91933553 -157.60448176 311.50539236 -165 314 C-183.54974706 316.25644632 -201.69480313 305.76615077 -216 295 C-226.66140684 286.52320792 -236.46186752 277.21123517 -245.34765625 266.8828125 C-251.33961709 259.85712749 -251.33961709 259.85712749 -259 255 C-262.26160713 255.26092857 -264.9003094 255.9667698 -268 257 C-269.01789797 258.77849057 -269.01789797 258.77849057 -270 261 C-271.26136321 262.90214727 -272.53390745 264.79689098 -273.8125 266.6875 C-292.40426343 295.07076941 -303.49009518 324.01470431 -297 358 C-296.80921875 359.07121094 -296.6184375 360.14242188 -296.421875 361.24609375 C-295.96046451 363.83328826 -295.48649642 366.41742859 -295 369 C-299.34670078 368.42053972 -302.27677871 366.84327808 -305.98046875 364.53515625 C-306.54607513 364.18626343 -307.11168152 363.83737061 -307.69442749 363.47790527 C-308.90292427 362.7319089 -310.10948121 361.98276236 -311.3142395 361.23074341 C-314.47217461 359.26132331 -317.6465345 357.31874908 -320.8203125 355.375 C-321.75844536 354.79958214 -321.75844536 354.79958214 -322.7155304 354.21253967 C-329.65049528 349.96997224 -336.71327747 345.98848409 -343.87695312 342.14599609 C-346.12113349 340.93461355 -348.34936634 339.69653223 -350.578125 338.45703125 C-381.95447325 321.20361926 -416.40115177 312.78629499 -451.9609375 319.34375 C-455.34226503 319.95191383 -458.55619829 320.13119245 -462 320 C-459.45008989 316.97980377 -456.70094942 315.85553282 -453.06640625 314.3984375 C-451.86999512 313.91310547 -450.67358398 313.42777344 -449.44091797 312.92773438 C-448.80812927 312.67467529 -448.17534058 312.42161621 -447.52337646 312.16088867 C-444.20936378 310.83268413 -440.90845949 309.4725125 -437.60546875 308.1171875 C-436.94806702 307.84811584 -436.29066528 307.57904419 -435.61334229 307.30181885 C-414.04284504 298.4724653 -394.93501346 288.00029045 -377 273 C-376.44618652 272.53706543 -375.89237305 272.07413086 -375.32177734 271.59716797 C-372.57027533 269.28896793 -369.8318458 266.96605506 -367.1015625 264.6328125 C-364.16497286 262.1285592 -361.1826274 259.6840567 -358.1875 257.25 C-351.5597837 251.8343189 -345.31464909 246.56758332 -339.7734375 240.0234375 C-337.97538083 237.97191028 -336.0842574 236.08480459 -334.125 234.1875 C-330.15374194 230.27757411 -326.69117621 226.0504539 -323.2109375 221.703125 C-321.25761412 219.31496284 -319.23106074 217.06469556 -317.125 214.8125 C-307.10599754 203.58262394 -299.45429332 190.1443506 -291.24154663 177.5737915 C-284.95845487 167.95726108 -278.64776747 158.36991363 -272 149 C-271.55785156 148.37528809 -271.11570312 147.75057617 -270.66015625 147.10693359 C-264.19998089 138.02288389 -257.3964955 129.34097108 -250 121 C-249.34773437 120.25105469 -248.69546875 119.50210938 -248.0234375 118.73046875 C-221.31504418 89.91949978 -173.26448656 83.85686993 -137.14013672 76.19873047 C-102.35298189 68.77081547 -71.33418913 58.01395232 -41 39 C-40.37625488 38.61199219 -39.75250977 38.22398437 -39.10986328 37.82421875 C-25.66387363 29.30195796 -14.05246196 17.67419907 -4.54077148 4.96508789 C-3.12845365 3.16382878 -1.65490559 1.57726881 0 0 Z " fill="#FEFEFE" transform="translate(827,160)" />
<path d="M0 0 C0.66 0 1.32 0 2 0 C10.51314377 17.60361853 17.61428733 35.54106636 24 54 C24.38317383 55.10553223 24.76634766 56.21106445 25.16113281 57.35009766 C31.83384375 76.82455011 36.60923999 96.62197216 40.25 116.875 C40.40114258 117.70402832 40.55228516 118.53305664 40.70800781 119.38720703 C43.6665642 136.77456944 44.3742714 154.1439363 44.3125 171.75 C44.31100952 172.80416107 44.30951904 173.85832214 44.3079834 174.94442749 C44.2693029 190.16563718 43.86778015 205.00890551 41 220 C40.86609863 220.75603516 40.73219727 221.51207031 40.59423828 222.29101562 C39.59081448 227.91018889 38.3379712 233.45193173 37 239 C36.6277832 240.56427734 36.6277832 240.56427734 36.24804688 242.16015625 C30.96433389 264.11941732 24.31467663 285.61359495 17.52587891 307.14599609 C15.37918717 313.96194006 13.28180883 320.79280222 11.1875 327.625 C10.55608285 329.67971616 9.92458433 331.73440732 9.29296875 333.7890625 C8.86191945 335.19269 8.43090312 336.59632762 8 338 C6.68 338 5.36 338 4 338 C2.19745976 335.73737081 0.73804133 333.58739729 -0.75 331.125 C-1.45346558 329.99952759 -1.45346558 329.99952759 -2.17114258 328.85131836 C-3.79547684 326.24304499 -5.39753316 323.62175892 -7 321 C-8.23733187 318.99811081 -9.47565352 316.99683313 -10.71484375 314.99609375 C-14.12868387 309.47374283 -17.52443022 303.94044179 -20.91503906 298.40380859 C-33.81001368 277.35208305 -46.80453764 256.36486677 -60 235.5 C-62.00100559 232.3339675 -64.00090073 229.16723653 -66 226 C-66.87374268 224.61627197 -66.87374268 224.61627197 -67.76513672 223.20458984 C-76.75655814 208.94747411 -85.6369851 194.63672097 -94 180 C-94.44053711 179.24187012 -94.88107422 178.48374023 -95.33496094 177.70263672 C-100.35109445 168.98020315 -103.93370719 161.3262595 -102 151 C-99.20004949 140.72431954 -92.7925199 131.80388161 -87 123 C-86.46133301 122.17757812 -85.92266602 121.35515625 -85.36767578 120.5078125 C-73.99816734 103.18532438 -62.21827844 86.27592439 -49.41455078 69.98242188 C-40.6658707 58.8426884 -32.17502985 47.56797119 -24 36 C-23.3414502 35.06897461 -22.68290039 34.13794922 -22.00439453 33.17871094 C-11.21059653 17.92044213 -11.21059653 17.92044213 -1.3828125 2.03515625 C-0.92648437 1.36355469 -0.47015625 0.69195313 0 0 Z " fill="#FEFEFE" transform="translate(300,832)" />
<path d="M0 0 C0 3 0 3 -1.16342163 4.53764343 C-1.70810089 5.08169327 -2.25278015 5.6257431 -2.81396484 6.1862793 C-3.42815277 6.80669601 -4.0423407 7.42711273 -4.67514038 8.06632996 C-5.34695343 8.72893326 -6.01876648 9.39153656 -6.7109375 10.07421875 C-7.39427155 10.7580513 -8.07760559 11.44188385 -8.78164673 12.1464386 C-10.22909665 13.59154597 -11.6802458 15.03295607 -13.13476562 16.47094727 C-15.36764762 18.68022534 -17.58690631 20.90252745 -19.8046875 23.12695312 C-21.21014658 24.52683618 -22.61637108 25.92595128 -24.0234375 27.32421875 C-24.69120209 27.99289474 -25.35896667 28.66157074 -26.04696655 29.35050964 C-26.6674588 29.96146988 -27.28795105 30.57243011 -27.92724609 31.2019043 C-28.74665176 32.01439888 -28.74665176 32.01439888 -29.58261108 32.8433075 C-31 34 -31 34 -33 34 C-31.64941886 30.98611927 -30.14395225 28.8965323 -27.8046875 26.57421875 C-27.17506104 25.94588135 -26.54543457 25.31754395 -25.89672852 24.67016602 C-25.22955811 24.01588623 -24.5623877 23.36160645 -23.875 22.6875 C-23.19429443 22.01323975 -22.51358887 21.33897949 -21.81225586 20.64428711 C-17.91689743 16.80852064 -13.96429423 13.08950876 -9.78515625 9.5625 C-6.350618 6.55633961 -3.187576 3.26387436 0 0 Z " fill="#F4835F" transform="translate(216,414)" />
<path d="M0 0 C0.66 0.33 1.32 0.66 2 1 C0.90653119 2.34212062 -0.2001575 3.67347975 -1.3125 5 C-2.23482422 6.11375 -2.23482422 6.11375 -3.17578125 7.25 C-5 9 -5 9 -8 9 C-6.85459775 7.68712379 -5.70866567 6.37470979 -4.5625 5.0625 C-3.92441406 4.33160156 -3.28632812 3.60070313 -2.62890625 2.84765625 C-1.77458541 1.87860647 -0.91348825 0.91348825 0 0 Z " fill="#F54734" transform="translate(540,1285)" />
<path d="M0 0 C0.99 0.33 1.98 0.66 3 1 C1.68 1.33 0.36 1.66 -1 2 C-1 2.66 -1 3.32 -1 4 C-4.46153846 7 -4.46153846 7 -7 7 C-7.33 7.66 -7.66 8.32 -8 9 C-7.66032174 5.82966958 -7.00130809 5.00117393 -4.5625 2.8125 C-2 1 -2 1 0 0 Z " fill="#F4825D" transform="translate(112,708)" />
<path d="M0 0 C0.66 0.99 1.32 1.98 2 3 C1.21625 3.763125 0.4325 4.52625 -0.375 5.3125 C-3.07257717 7.90891805 -3.07257717 7.90891805 -5 11 C-4.54663921 6.12637153 -3.2910841 3.60957611 0 0 Z " fill="#F43D28" transform="translate(581,1139)" />
<path d="M0 0 C0 3.94042779 -1.46184088 5.08858219 -4 8 C-4.66 8.66 -5.32 9.32 -6 10 C-5.58578031 5.16743695 -3.53586014 3.17320782 0 0 Z " fill="#F3845D" transform="translate(738,394)" />
<path d="M0 0 C0.75 1.75 0.75 1.75 1 4 C-0.9375 6.25 -0.9375 6.25 -3 8 C-3.33 7.34 -3.66 6.68 -4 6 C-2.68 4.02 -1.36 2.04 0 0 Z " fill="#F28660" transform="translate(900,1332)" />
<path d="M0 0 C0.33 0.66 0.66 1.32 1 2 C-0.32 3.65 -1.64 5.3 -3 7 C-3.99 6.67 -4.98 6.34 -6 6 C-4.02 4.02 -2.04 2.04 0 0 Z " fill="#F3845E" transform="translate(674,465)" />
<g id="foetus" transform="translate(260,340)"><circle cx="0" cy="0" r="8" fill="#264653" /><ellipse cx="0" cy="15" rx="6" ry="10" fill="#264653" /><animateTransform attributeName="transform" type="scale" values="1;1.2;1" dur="4s" repeatCount="indefinite" /></g></svg>